<svg height="512pt" viewBox="0 0 512 512.001" width="512pt" xmlns="http://www.w3.org/2000/svg"><path d="m9.773438 75.769531c.316406.386719.644531.765625.976562 1.144531.128906.144532.253906.296876.382812.441407.304688.332031.621094.65625.933594.980469.164063.171874.324219.347656.492188.515624l146.203125 146.207032c1.464843 1.464844 3.382812 2.195312 5.304687 2.195312 1.917969 0 3.839844-.730468 5.304688-2.195312 2.929687-2.929688 2.929687-7.679688 0-10.605469l-69.8125-69.8125 17.238281-17.238281 70.152344 70.152344c1.464843 1.464843 3.386719 2.199218 5.304687 2.199218 1.917969 0 3.839844-.734375 5.304688-2.199218 2.929687-2.929688 2.929687-7.675782 0-10.605469l-70.15625-70.15625 17.238281-17.234375 69.726563 69.726562c2.929687 2.929688 7.675781 2.929688 10.605468 0 2.929688-2.929687 2.929688-7.679687 0-10.605468l-75.023437-75.023438c0-.003906-71.09375-71.097656-71.09375-71.097656-2.488281-2.488282-5.222657-4.589844-8.121094-6.296875-11.582031-6.839844-25.84375-7.472657-37.921875-1.902344-.582031.269531-1.152344.550781-1.722656.847656-.046875.023438-.09375.046875-.140625.070313-.363281.191406-.71875.398437-1.078125.601562-.226563.125-.457032.246094-.679688.378906-2.226562 1.3125-4.347656 2.859376-6.34375 4.628907-.605468.539062-1.203125 1.089843-1.78125 1.671875l-8.507812 8.507812c-.15625.15625-.300782.320313-.453125.476563-.328125.339843-.65625.675781-.972657 1.023437-.117187.128906-.222656.261719-.339843.390625-.347657.394531-.691407.789063-1.023438 1.195313-.042969.050781-.078125.101562-.117187.148437-5.867188 7.246094-9.0625 16.203125-9.0625 25.660157 0 9.433593 3.183594 18.378906 9.027344 25.617187.054687.0625.101562.128906.15625.191406zm124.257812 13.179688-45.082031 45.082031-11.839844-11.84375 45.078125-45.082031zm-111.878906-56.199219c.035156-.039062.066406-.082031.101562-.121094.296875-.324218.597656-.644531.910156-.957031l8.507813-8.507813c8.664063-8.664062 21.996094-9.875 31.972656-3.648437 1.636719 1.019531 3.183594 2.230469 4.601563 3.648437l43.335937 43.335938-45.082031 45.082031-43.335938-43.335937c-.152343-.15625-.300781-.316406-.453124-.476563-.148438-.15625-.300782-.308593-.445313-.46875-.097656-.105469-.1875-.21875-.28125-.324219-.195313-.226562-.394531-.449218-.582031-.675781-.042969-.054687-.082032-.109375-.125-.164062-7.84375-9.765625-7.550782-23.945313.875-33.386719zm0 0"/><path d="m471.105469 411.546875c-4.625-9.09375-10.625-17.363281-17.839844-24.578125l-100.832031-100.832031c-2.929688-2.929688-7.675782-2.929688-10.605469 0-2.929687 2.929687-2.929687 7.679687 0 10.605469l100.832031 100.835937c.808594.808594 1.597656 1.636719 2.371094 2.476563-7.441406 3.75-14.351562 8.382812-20.597656 13.769531l-99.371094-99.371094c-2.929688-2.929687-7.679688-2.929687-10.609375 0s-2.929687 7.679687 0 10.605469l99.375 99.375c-5.386719 6.242187-10.019531 13.152344-13.773437 20.59375-.839844-.769532-1.664063-1.558594-2.472657-2.367188l-100.363281-100.363281c-2.929688-2.929687-7.675781-2.929687-10.605469 0-2.929687 2.929687-2.929687 7.679687 0 10.605469l100.359375 100.363281c6.933594 6.933594 14.847656 12.734375 23.527344 17.28125.351562.183594.695312.378906 1.050781.558594l75.644531 38.464843c2.457032 1.25 5.0625 1.859376 7.628907 1.859376 4.269531 0 8.445312-1.6875 11.683593-4.925782 5.191407-5.191406 6.394532-12.769531 3.066407-19.3125zm24.792969 84.351563c-.210938.210937-.417969.34375-.617188.421874-.492188.195313-.921875.050782-1.167969-.0625-.046875-.019531-.089843-.042968-.121093-.058593l-75.648438-38.464844c-.058594-.03125-.113281-.0625-.171875-.09375-.949219-.484375-1.886719-.988281-2.816406-1.507813-.253907-.144531-.5-.296874-.75-.441406-.738281-.421875-1.472657-.851562-2.199219-1.300781-.058594-.035156-.117188-.074219-.171875-.113281 8.597656-18.515625 23.527344-33.449219 42.046875-42.046875.035156.058593.074219.117187.109375.175781.457031.734375.894531 1.484375 1.324219 2.234375.136718.234375.277344.46875.414062.703125.554688.992188 1.09375 1.992188 1.605469 3l38.464844 75.644531c.03125.066407.085937.164063.128906.289063s.082031.277344.085937.445312c.015626.34375-.09375.753906-.515624 1.175782zm0 0"/><path d="m507.011719 69.683594-64.683594-64.6875c-3.222656-3.222656-7.507813-4.996094-12.066406-4.996094-4.554688 0-8.839844 1.773438-12.0625 4.996094l-413.203125 413.203125c-3.21875 3.222656-4.996094 7.507812-4.996094 12.066406 0 4.554687 1.773438 8.839844 4.996094 12.0625l64.683594 64.683594c3.328124 3.328125 7.695312 4.988281 12.066406 4.988281 4.367187 0 8.734375-1.660156 12.0625-4.988281l413.203125-413.203125c6.652343-6.652344 6.652343-17.472656 0-24.125zm-447.546875 405.898437-43.859375-43.863281c-.5-.496094-.605469-1.066406-.605469-1.457031s.105469-.957031.605469-1.457031l413.203125-413.203126c.496094-.496093 1.066406-.601562 1.453125-.601562.390625 0 .960937.105469 1.457031.601562l43.863281 43.863282-42.378906 42.375-18.1875-18.1875c-2.929687-2.929688-7.675781-2.929688-10.605469 0-2.929687 2.929687-2.929687 7.679687 0 10.605468l18.1875 18.191407-28.464844 28.464843-8.035156-8.035156c-2.929687-2.929687-7.675781-2.929687-10.605468 0-2.929688 2.929688-2.929688 7.675782 0 10.605469l8.035156 8.035156-30.511719 30.507813-18.1875-18.1875c-2.925781-2.925782-7.675781-2.929688-10.605469 0-2.929687 2.929687-2.929687 7.679687 0 10.609375l18.1875 18.1875-28.464844 28.464843-8.035156-8.035156c-2.929687-2.929687-7.679687-2.929687-10.605468 0-2.929688 2.929688-2.929688 7.679688 0 10.605469l8.035156 8.035156-30.511719 30.511719-18.1875-18.1875c-2.929687-2.929688-7.675781-2.929688-10.605469 0-2.929687 2.929688-2.929687 7.675781 0 10.605469l18.1875 18.1875-28.464844 28.464843-8.035156-8.03125c-2.929687-2.929687-7.679687-2.929687-10.605468 0-2.929688 2.929688-2.929688 7.675782 0 10.605469l8.035156 8.035157-30.511719 30.507812-18.1875-18.1875c-2.929687-2.929688-7.675781-2.929688-10.605469 0-2.929687 2.929688-2.929687 7.675781 0 10.605469l18.1875 18.1875-28.464844 28.46875-8.035156-8.035157c-2.929687-2.929687-7.679687-2.929687-10.609375 0-2.925781 2.925782-2.925781 7.675782.003907 10.605469l8.035156 8.035157-30.511719 30.507812-18.1875-18.183594c-2.929687-2.929687-7.679687-2.929687-10.605469 0-2.929687 2.925782-2.929687 7.675782 0 10.605469l18.1875 18.1875zm436.941406-392.378906-413.203125 413.203125c-.804687.800781-2.109375.800781-2.914063 0l-10.214843-10.21875 416.113281-416.117188 10.21875 10.21875c.800781.800782.800781 2.109376 0 2.914063zm0 0"/></svg>